<svg width="45" height="45" viewBox="0 0 45 45" fill="none" xmlns="http://www.w3.org/2000/svg">
<mask id="mask0_34_898" style="mask-type:alpha" maskUnits="userSpaceOnUse" x="0" y="0" width="45" height="45">
<circle cx="22.5" cy="22.5" r="22.5" fill="#D9D9D9"/>
</mask>
<g mask="url(#mask0_34_898)">
<path d="M67.5 2.24976H-24.75V48.3748H67.5V2.24976Z" fill="#509E2F"/>
<path d="M67.5 0H-24.75V30.75H67.5V0Z" fill="#EF3340"/>
<path d="M67.5 -2.24976H-24.75V13.1252H67.5V-2.24976Z" fill="#00B5E2"/>
<path d="M20.9188 29.5875C24.7399 29.5875 27.8375 26.4899 27.8375 22.6688C27.8375 18.8476 24.7399 15.75 20.9188 15.75C17.0976 15.75 14 18.8476 14 22.6688C14 26.4899 17.0976 29.5875 20.9188 29.5875Z" fill="white"/>
<path d="M22.4561 28.4348C25.6403 28.4348 28.2217 25.8535 28.2217 22.6692C28.2217 19.4849 25.6403 16.9036 22.4561 16.9036C19.2718 16.9036 16.6904 19.4849 16.6904 22.6692C16.6904 25.8535 19.2718 28.4348 22.4561 28.4348Z" fill="#EF3340"/>
<path d="M28.6055 18.825L29.3409 20.8931L31.3234 19.9508L30.381 21.9332L32.4492 22.6687L30.381 23.4042L31.3234 25.3866L29.3409 24.4443L28.6055 26.5125L27.87 24.4443L25.8876 25.3866L26.8299 23.4042L24.7617 22.6687L26.8299 21.9332L25.8876 19.9508L27.87 20.8931L28.6055 18.825Z" fill="white"/>
</g>
</svg>
