<svg width="15" height="15" viewBox="0 0 15 15" fill="none" xmlns="http://www.w3.org/2000/svg">
<g id="Vector">
<path d="M8.66759 13.4651C8.3544 13.7289 7.93579 13.8763 7.50014 13.8763C7.06449 13.8763 6.64589 13.7289 6.3327 13.4651C3.46471 11.0354 -0.378752 8.32119 1.49559 4.38061C2.50903 2.24997 4.94173 0.886597 7.50014 0.886597C10.0585 0.886597 12.4913 2.24997 13.5047 4.38061C15.3767 8.31622 11.5427 11.0438 8.66759 13.4651Z" stroke="#5282FF" stroke-width="1.08"/>
<path d="M10.0269 6.73196C10.0269 7.98741 8.89524 9.00515 7.49933 9.00515C6.10342 9.00515 4.97182 7.98741 4.97182 6.73196C4.97182 5.47651 6.10342 4.45876 7.49933 4.45876C8.89524 4.45876 10.0269 5.47651 10.0269 6.73196Z" stroke="#5282FF" stroke-width="1.08"/>
</g>
</svg>
