<svg width="17" height="17" viewBox="0 0 17 17" fill="none" xmlns="http://www.w3.org/2000/svg">
<path id="Vector" d="M13.0497 12.2003C12.8151 11.9658 12.4349 11.9658 12.2003 12.2003C11.9658 12.4349 11.9658 12.8151 12.2003 13.0497L13.0497 12.2003ZM12.2003 13.0497L15.5753 16.4247L16.4247 15.5753L13.0497 12.2003L12.2003 13.0497ZM15.1006 7.75C15.1006 3.6904 11.8096 0.399441 7.75 0.399441V1.60056C11.1462 1.60056 13.8994 4.35376 13.8994 7.75H15.1006ZM7.75 0.399441C3.6904 0.399441 0.399441 3.6904 0.399441 7.75H1.60056C1.60056 4.35376 4.35376 1.60056 7.75 1.60056V0.399441ZM0.399441 7.75C0.399441 11.8096 3.6904 15.1006 7.75 15.1006V13.8994C4.35376 13.8994 1.60056 11.1462 1.60056 7.75H0.399441ZM7.75 15.1006C11.8096 15.1006 15.1006 11.8096 15.1006 7.75H13.8994C13.8994 11.1462 11.1462 13.8994 7.75 13.8994V15.1006Z" fill="#5282FF"/>
</svg>
