<svg width="52" height="52" viewBox="0 0 52 52" fill="none" xmlns="http://www.w3.org/2000/svg">
<mask id="mask0_34_913" style="mask-type:alpha" maskUnits="userSpaceOnUse" x="0" y="0" width="52" height="52">
<path d="M52 26C52 40.3594 40.3594 52 26 52C11.6406 52 0 40.3594 0 26C0 11.6406 11.6406 0 26 0C40.3594 0 52 11.6406 52 26Z" fill="#D35D5D"/>
</mask>
<g mask="url(#mask0_34_913)">
<path d="M-9.82227 0H68.1777V52H-9.82227V0Z" fill="#E30A17"/>
<path d="M30.7228 26L40.4446 22.8416L34.4358 31.1109V20.8891L40.4446 29.1584L30.7228 26ZM31.3856 31.7472C30.1404 33.715 28.2898 35.2251 26.1123 36.0503C23.9348 36.8755 21.5482 36.9712 19.3116 36.323C17.075 35.6748 15.1095 34.3177 13.7107 32.456C12.3119 30.5943 11.5557 28.3286 11.5557 26C11.5557 23.6714 12.3119 21.4057 13.7107 19.544C15.1095 17.6823 17.075 16.3252 19.3116 15.677C21.5482 15.0288 23.9348 15.1245 26.1123 15.9497C28.2898 16.775 30.1404 18.2851 31.3856 20.2528C30.2228 18.9589 28.6948 18.0481 27.0036 17.6408C25.3123 17.2334 23.5372 17.3487 21.9128 17.9714C20.2885 18.594 18.8911 19.6948 17.9055 21.1282C16.9198 22.5616 16.3921 24.2604 16.3921 26C16.3921 27.7396 16.9198 29.4384 17.9055 30.8718C18.8911 32.3052 20.2885 33.406 21.9128 34.0286C23.5372 34.6513 25.3123 34.7666 27.0036 34.3592C28.6948 33.9519 30.2228 33.0411 31.3856 31.7472Z" fill="white"/>
</g>
</svg>
